<svg width="21" height="18" viewBox="0 0 21 18" fill="none" xmlns="http://www.w3.org/2000/svg">
<path d="M19.9453 8.0752C20.2969 8.3916 20.332 8.91895 20.0508 9.27051C19.7344 9.62207 19.207 9.65723 18.8555 9.37598L18.0117 8.6377V15.1768C18.0117 16.7588 16.7461 17.9893 15.1992 17.9893H5.07422C3.49219 17.9893 2.26172 16.7588 2.26172 15.1768V8.6377L1.38281 9.37598C1.03125 9.65723 0.503906 9.62207 0.1875 9.27051C-0.09375 8.91895 -0.0585938 8.3916 0.292969 8.0752L9.57422 0.200195C9.89062 -0.0458984 10.3477 -0.0458984 10.6641 0.200195L19.9453 8.0752ZM5.07422 16.3018H6.76172V10.958C6.76172 10.1846 7.35938 9.55176 8.16797 9.55176H12.1055C12.8789 9.55176 13.5117 10.1846 13.5117 10.958V16.3018H15.1992C15.7969 16.3018 16.3242 15.8096 16.3242 15.1768V7.19629L10.1367 1.95801L3.94922 7.19629V15.1768C3.94922 15.8096 4.44141 16.3018 5.07422 16.3018ZM8.44922 16.3018H11.8242V11.2393H8.44922V16.3018Z" fill="white"/>
</svg>
