<svg width="202" height="41" viewBox="0 0 202 41" fill="none" xmlns="http://www.w3.org/2000/svg">
<path fill-rule="evenodd" clip-rule="evenodd" d="M23.9939 1.0334C23.5054 1.12838 22.7456 1.34549 22.2978 1.50832C21.85 1.67115 20.9002 2.09179 20.1946 2.44458C19.489 2.79738 18.2678 3.51654 17.4808 4.04573C16.6938 4.57493 15.4726 5.51119 14.767 6.14894C14.0614 6.77312 13.0844 7.73652 12.5959 8.29285C12.1074 8.83562 11.239 9.93471 10.642 10.7217C10.0585 11.5087 9.16293 12.8521 8.66087 13.7069C8.14525 14.5618 7.38538 16.0001 6.95117 16.8956C6.53053 17.7912 5.90635 19.2295 5.58069 20.0844C5.24147 20.9392 4.82083 22.2554 4.63086 23.0017C4.37305 24.0601 4.27806 24.8336 4.22379 26.5297C4.16951 27.9544 4.21022 29.0535 4.31877 29.7184C4.41375 30.2748 4.63086 31.1296 4.79369 31.6181C4.95652 32.1066 5.26861 32.8393 5.47214 33.2464C5.67568 33.6535 6.10989 34.3319 6.42198 34.739C6.73407 35.1461 7.2904 35.7295 7.65676 36.028C8.02313 36.3266 8.783 36.8286 9.33933 37.1407C9.89566 37.4664 11.2797 38.0905 12.3924 38.5248C13.5186 38.9725 15.1605 39.556 16.056 39.8274C16.9516 40.0988 18.417 40.438 19.3126 40.6008C20.6559 40.8315 21.3208 40.8586 23.1119 40.8044C24.6995 40.7501 25.5815 40.6687 26.3685 40.4516C26.9656 40.3023 27.9697 39.9088 28.5938 39.5967C29.3266 39.2303 30.0186 38.7419 30.5071 38.2669C30.9277 37.8463 31.4434 37.1678 31.6605 36.7065C31.9997 36.0145 32.0675 35.7024 32.1082 34.6033C32.1489 33.572 32.0947 33.0564 31.8233 32.0252C31.6469 31.3196 31.2398 30.1391 30.9277 29.4199C30.6292 28.6872 30.0593 27.5202 29.6658 26.8418C29.2723 26.1498 28.4989 24.9692 27.929 24.2229C27.3726 23.4767 26.4228 22.3776 25.8258 21.7669C25.2287 21.1699 24.2382 20.2879 23.6276 19.7994C23.0305 19.3245 22.4335 18.931 22.3114 18.931C22.1892 18.931 22.0943 18.9581 22.0943 18.9989C22.0943 19.0396 22.4742 19.4331 22.922 19.8808C23.3833 20.3286 24.0889 21.0885 24.4824 21.577C24.8759 22.0655 25.2151 22.5132 25.2151 22.5947C25.2151 22.6761 24.591 22.0655 23.8175 21.2378C23.0441 20.41 22.0807 19.4873 21.6736 19.1753C21.2665 18.8632 20.5745 18.3882 20.1267 18.1169C19.679 17.8591 18.8241 17.4791 18.2271 17.2756C17.3722 17.0042 16.8566 16.9228 15.7846 16.9228C14.8891 16.9092 14.1699 16.9906 13.6814 17.1399C13.2744 17.262 12.6502 17.547 12.2974 17.7776L11.6461 18.1847C11.429 17.5063 11.3747 17.0856 11.3747 16.8278C11.3747 16.57 11.4968 15.9594 11.6325 15.4709C11.7818 14.9824 12.2024 14.1276 12.5823 13.5712C12.9487 13.0149 13.6679 12.1058 14.1699 11.5494C14.6855 11.0067 15.5947 10.179 16.1917 9.73118C16.7888 9.2834 17.8064 8.65922 18.4713 8.33356C19.1226 8.0079 20.181 7.57369 20.8459 7.37016C21.9179 7.0445 22.2299 7.00379 24.2653 7.00379C26.0022 6.99022 26.7485 7.0445 27.5897 7.24804C28.1868 7.38373 29.1637 7.66868 29.7608 7.88578C30.3578 8.10289 31.1448 8.50996 31.5112 8.79491C31.8911 9.06629 32.3796 9.55478 32.5967 9.86687C32.8274 10.179 33.1531 10.6674 33.3295 10.9524C33.4923 11.2373 33.8179 11.5766 34.035 11.7123C34.2657 11.8344 34.6049 11.9429 34.7949 11.9429C34.9985 11.9429 35.297 11.7801 35.5412 11.5359C35.8533 11.2102 35.9347 11.0067 35.9347 10.5589C35.9347 10.1654 35.799 9.74475 35.5412 9.29697C35.3377 8.9306 34.7678 8.26572 34.2929 7.83151C33.8179 7.3973 32.9631 6.81382 32.4068 6.52887C31.8504 6.23035 30.9956 5.87756 30.5071 5.7283C30.0186 5.57904 29.0416 5.38907 28.336 5.29409C27.5083 5.17197 26.5042 5.14483 25.5544 5.19911C24.7267 5.25338 23.5462 5.41621 22.9084 5.5519C22.2707 5.70116 21.2937 5.98611 20.7374 6.17608C20.181 6.37962 19.3262 6.74598 18.8377 6.99022C18.3492 7.23447 17.3994 7.80437 16.7345 8.25215C16.0696 8.69993 14.9976 9.54121 14.3735 10.1382C13.7493 10.7217 12.7994 11.7801 12.2702 12.4857C11.7275 13.1913 11.0219 14.2632 10.6962 14.8603C10.1806 15.7694 10.0721 15.8915 10.0449 15.6066C10.0178 15.4166 10.1942 14.6839 10.4249 13.9783C10.6555 13.2727 11.0897 12.2279 11.3883 11.6716C11.6868 11.1152 12.2567 10.2332 12.6638 9.70404C13.0573 9.18841 13.8307 8.33356 14.3735 7.81794C14.9298 7.28874 15.8932 6.52887 16.5309 6.1218C17.1687 5.71473 18.1864 5.14483 18.8105 4.85988C19.4212 4.57493 20.5202 4.16786 21.2394 3.95075C21.9721 3.74721 22.9898 3.4894 23.519 3.40799C24.0482 3.313 25.1744 3.19088 26.0293 3.12304C27.2369 3.02805 27.644 2.94664 27.834 2.75667C27.9697 2.62098 28.0782 2.33603 28.0782 2.10536C28.0782 1.86111 27.9561 1.58973 27.7661 1.41333C27.5897 1.2505 27.3184 1.04697 27.142 0.965553C26.9791 0.884139 26.3957 0.816294 25.8529 0.829863C25.3237 0.829863 24.4824 0.924846 23.9939 1.0334ZM14.1971 20.9667C13.8307 21.0752 13.3422 21.3737 13.098 21.618C12.8131 21.8893 12.596 22.2964 12.4874 22.7306C12.3788 23.1241 12.3517 23.6398 12.406 23.9518C12.4467 24.2504 12.6231 24.766 12.7723 25.1052C12.9352 25.4444 13.3965 26.0551 13.8172 26.4757C14.2921 26.9642 14.9434 27.4255 15.649 27.7783C16.246 28.0768 17.1959 28.4975 17.7522 28.6875C18.3085 28.891 19.774 29.3659 21.0088 29.7458C22.5421 30.2208 23.5055 30.4379 24.0347 30.4514C24.7403 30.465 24.8624 30.4243 25.1609 30.0986C25.3509 29.868 25.4866 29.5423 25.4866 29.3116C25.4866 29.0945 25.3916 28.6739 25.2695 28.4025C25.1609 28.1176 24.7945 27.5205 24.4825 27.0727C24.1568 26.625 23.112 25.458 22.1486 24.4675C21.0766 23.3684 20.0318 22.4592 19.4483 22.0793C18.9191 21.7537 18.1321 21.3466 17.6844 21.1702C17.2094 20.9938 16.4496 20.8445 15.8525 20.8174C15.1876 20.7767 14.6177 20.831 14.1835 20.9667H14.1971Z" fill="#181D27"/>
<path d="M3.64032 19.6366C3.1654 20.2201 2.55479 21.0885 2.26984 21.577C1.98489 22.0655 1.59139 22.8796 1.38785 23.4088C1.18431 23.938 0.912932 24.7793 0.777241 25.3085C0.64155 25.8377 0.465152 26.8961 0.383738 27.6831C0.288754 28.66 0.288754 29.5285 0.383738 30.4647C0.465152 31.211 0.64155 32.283 0.79081 32.8393C0.926501 33.3956 1.21145 34.2505 1.41499 34.739C1.63209 35.2275 1.93061 35.8516 2.10701 36.1366C2.28341 36.408 2.64977 36.8965 2.92115 37.195C3.20611 37.5071 3.80314 38.0227 4.25092 38.3348C4.6987 38.6604 5.43143 39.0947 5.87921 39.3253C6.32699 39.5424 7.2904 39.9224 8.00956 40.153C8.74229 40.3837 9.67856 40.6144 10.0992 40.6822C10.642 40.7501 10.8862 40.7365 11.0083 40.6008C11.1169 40.4832 11.1259 40.3882 11.0355 40.3159C10.954 40.248 10.3434 39.9088 9.67856 39.556C9.0001 39.2032 8.00956 38.6062 7.45323 38.2127C6.89689 37.8327 6.09632 37.1814 5.68925 36.7743C5.26861 36.3673 4.67157 35.6617 4.37305 35.2139C4.06096 34.7661 3.69459 34.1555 3.54533 33.857C3.3825 33.5585 3.13826 32.9207 2.989 32.4322C2.83974 31.9438 2.6362 31.0075 2.55479 30.329C2.43267 29.3928 2.4191 28.7686 2.54122 27.6152C2.6362 26.8011 2.82617 25.5392 2.989 24.8336C3.13826 24.128 3.47749 22.9339 3.7353 22.1876C3.99311 21.4413 4.40018 20.4643 4.61729 20.0165C4.83439 19.5688 4.99722 19.0803 4.97009 18.931C4.94295 18.7818 4.83439 18.6461 4.6987 18.6189C4.56301 18.5918 4.18308 18.9446 3.64032 19.6366Z" fill="#181D27"/>
<path d="M61.0575 32.6581C55.0575 32.6581 50.9775 28.1881 50.9775 21.5881C50.9775 14.9881 55.1175 10.4881 61.1775 10.4881C65.7975 10.4881 69.4275 13.2781 70.2975 17.5381H67.9875C67.0875 14.4481 64.4475 12.5581 61.0875 12.5581C56.3775 12.5581 53.2275 16.1581 53.2275 21.5881C53.2275 26.9881 56.3775 30.5881 61.0875 30.5881C64.4775 30.5881 67.1775 28.7581 68.1075 25.8781H70.4175C69.4275 29.9281 65.6775 32.6581 61.0575 32.6581ZM72.683 25.0681C72.683 20.6281 75.803 17.4181 80.063 17.4181C84.323 17.4181 87.443 20.6281 87.443 25.0681C87.443 29.4781 84.323 32.6881 80.063 32.6881C75.803 32.6881 72.683 29.4781 72.683 25.0681ZM74.783 25.0381C74.783 28.4581 76.943 30.8281 80.063 30.8281C83.153 30.8281 85.343 28.4581 85.343 25.0381C85.343 21.6781 83.153 19.2781 80.063 19.2781C76.943 19.2781 74.783 21.6781 74.783 25.0381ZM96.4538 32.6881C92.2238 32.6881 89.7338 29.4481 89.7338 25.0981C89.7338 20.7181 92.2238 17.4181 96.5438 17.4181C98.9438 17.4181 100.864 18.4681 101.884 20.5681V10.4581H103.954V32.3281H102.154L101.944 29.3581C100.924 31.6081 98.8838 32.6881 96.4538 32.6881ZM96.8138 30.7981C99.9938 30.7981 101.854 28.3981 101.854 25.0381C101.854 21.7081 99.9938 19.2781 96.8138 19.2781C93.6638 19.2781 91.8338 21.7081 91.8338 25.0381C91.8338 28.3981 93.6638 30.7981 96.8138 30.7981ZM114.363 32.6881C110.103 32.6881 107.253 29.6281 107.253 25.0681C107.253 20.5381 110.073 17.4181 114.213 17.4181C118.143 17.4181 120.813 20.2081 120.813 24.3181V25.3381H109.263C109.413 28.8781 111.273 30.9181 114.393 30.9181C116.763 30.9181 118.293 29.8981 118.833 27.9781H120.813C120.033 31.0381 117.783 32.6881 114.363 32.6881ZM114.213 19.1881C111.483 19.1881 109.683 20.9881 109.323 23.8381H118.743C118.743 21.0481 116.943 19.1881 114.213 19.1881ZM124.133 32.3281H121.943L129.833 10.8481H132.503L140.483 32.3281H138.233L136.133 26.6281H126.233L124.133 32.3281ZM130.883 13.8781L126.893 24.7381H135.443L131.423 13.8781C131.333 13.5781 131.183 13.2181 131.153 13.0081C131.123 13.1881 131.003 13.5781 130.883 13.8781ZM145.089 32.3281H143.019V17.8081H144.819L145.119 20.3281C146.079 18.4681 147.999 17.4181 150.099 17.4181C154.089 17.4181 155.739 19.7881 155.739 23.4481V32.3281H153.669V23.8981C153.669 20.5081 152.139 19.3081 149.739 19.3081C146.769 19.3081 145.089 21.4681 145.089 24.7381V32.3281ZM163.195 32.3281H161.155V19.5481H158.245V17.8081H161.155V13.2181H163.195V17.8081H166.105V19.5481H163.195V32.3281ZM177.571 32.3281H175.381L183.271 10.8481H185.941L193.921 32.3281H191.671L189.571 26.6281H179.671L177.571 32.3281ZM184.321 13.8781L180.331 24.7381H188.881L184.861 13.8781C184.771 13.5781 184.621 13.2181 184.591 13.0081C184.561 13.1881 184.441 13.5781 184.321 13.8781ZM199.067 10.8481V32.3281H196.907V10.8481H199.067Z" fill="#181D27"/>
</svg>
