<svg width="18" height="18" viewBox="0 0 18 18" fill="none" xmlns="http://www.w3.org/2000/svg">
<path d="M16.875 11.2739C17.6836 11.6255 18.1406 12.5044 17.8945 13.3833L17.1562 16.5825C17.0156 17.4263 16.2773 17.9888 15.3984 17.9888C6.89062 17.9888 0 11.0982 0 2.59034C0 1.71144 0.5625 0.973155 1.40625 0.797374L4.60547 0.0590925C5.48438 -0.151845 6.36328 0.305186 6.71484 1.11378L8.22656 4.62941C8.54297 5.36769 8.29688 6.24659 7.69922 6.77394L6.50391 7.72316C7.41797 9.27003 8.71875 10.5708 10.3008 11.4849L11.25 10.3247C11.7773 9.69191 12.6562 9.44581 13.4297 9.79737L16.875 11.2739ZM16.2773 12.9966C16.3125 12.9263 16.2773 12.856 16.207 12.7857L12.7617 11.3091C12.6914 11.2739 12.6211 11.3091 12.5859 11.3442L11.1797 13.0669C10.9336 13.3833 10.4766 13.4536 10.125 13.2778C7.76953 12.1177 5.83594 10.1841 4.67578 7.82862C4.5 7.47706 4.60547 7.05519 4.88672 6.80909L6.60938 5.40284C6.67969 5.36769 6.67969 5.29737 6.64453 5.22706L5.16797 1.78175C5.13281 1.74659 5.09766 1.67628 5.02734 1.67628L4.99219 1.71144L1.79297 2.44972C1.72266 2.44972 1.65234 2.52003 1.65234 2.59034C1.65234 10.1489 7.83984 16.3013 15.3984 16.3013C15.4688 16.3013 15.5391 16.231 15.5391 16.1958L16.2773 12.9966Z" fill="#414651"/>
</svg>
