<svg width="16" height="16" viewBox="0 0 16 16" fill="none" xmlns="http://www.w3.org/2000/svg">
<path d="M15.1875 8.24609C15.1875 8.73828 14.8008 9.08984 14.3438 9.08984H8.71875V14.7148C8.71875 15.207 8.33203 15.5938 7.875 15.5938C7.38281 15.5938 7.03125 15.207 7.03125 14.7148V9.08984H1.40625C0.914062 9.08984 0.5625 8.73828 0.5625 8.28125C0.5625 7.78906 0.914062 7.40234 1.40625 7.40234H7.03125V1.77734C7.03125 1.32031 7.38281 0.96875 7.875 0.96875C8.33203 0.96875 8.71875 1.32031 8.71875 1.77734V7.40234H14.3438C14.8008 7.40234 15.1875 7.78906 15.1875 8.24609Z" fill="white"/>
</svg>
