<svg width="18" height="18" viewBox="0 0 18 18" fill="none" xmlns="http://www.w3.org/2000/svg">
<path d="M15.9648 10.4102C16.4219 10.5508 16.668 11.0078 16.5273 11.4648C15.543 14.8047 12.4492 17.125 8.96875 17.125C6.19141 17.125 3.625 15.6133 2.21875 13.2578V16.8438C2.21875 17.3359 1.86719 17.6875 1.375 17.6875C0.917969 17.6875 0.53125 17.3359 0.53125 16.8438V11.2188C0.53125 10.7617 0.917969 10.375 1.375 10.375H7C7.49219 10.375 7.84375 10.7617 7.84375 11.2188C7.84375 11.7109 7.45703 12.0625 7 12.0625H3.44922C4.50391 14.1016 6.61328 15.4375 8.96875 15.4375C11.7109 15.4375 14.1719 13.6094 14.9102 10.9727C15.0508 10.5156 15.5078 10.2695 15.9648 10.4102ZM16.5977 0.8125C17.0547 0.8125 17.4414 1.19922 17.4414 1.65625V7.28125C17.4414 7.77344 17.0547 8.125 16.5977 8.125H10.9727C10.4805 8.125 10.1289 7.77344 10.1289 7.28125C10.1289 6.82422 10.4805 6.4375 10.9727 6.4375H14.4883C13.4336 4.43359 11.3242 3.0625 9.00391 3.0625C6.26172 3.0625 3.80078 4.92578 3.02734 7.52734C2.92188 7.98438 2.46484 8.23047 2.00781 8.08984C1.55078 7.98438 1.30469 7.49219 1.41016 7.07031C2.39453 3.73047 5.52344 1.375 9.00391 1.375C11.7812 1.375 14.3477 2.92188 15.7539 5.27734V1.65625C15.7539 1.19922 16.1055 0.8125 16.5977 0.8125Z" fill="#414651"/>
</svg>
