<svg width="57" height="57" viewBox="0 0 57 57" fill="none" xmlns="http://www.w3.org/2000/svg">
<ellipse cx="28.8359" cy="28.5863" rx="28" ry="28.3832" fill="#9D90FA" fill-opacity="0.25"/>
<path d="M38.4363 27.7554H28.6582V17.8435C28.6582 17.7215 28.5598 17.6218 28.4395 17.6218H27.7285C26.2937 17.6203 24.8728 17.906 23.5472 18.4625C22.2216 19.019 21.0175 19.8354 20.0039 20.8648C19.006 21.8732 18.211 23.0688 17.6633 24.3849C17.0945 25.7514 16.8047 27.2011 16.8047 28.6979C16.8047 30.1946 17.0945 31.6415 17.6633 33.008C18.2129 34.3246 19.0004 35.5109 20.0039 36.5282C21.0074 37.5454 22.175 38.3437 23.4766 38.9008C24.8223 39.4795 26.2695 39.7765 27.7313 39.7739C29.166 39.7754 30.587 39.4897 31.9125 38.9332C33.2381 38.3767 34.4423 37.5603 35.4559 36.5309C36.4594 35.5137 37.2469 34.3301 37.7965 33.0108C38.3674 31.6467 38.6604 30.1796 38.6578 28.6979V27.9772C38.6551 27.8552 38.5566 27.7554 38.4363 27.7554ZM40.8398 26.2171L40.7688 25.4354C40.5363 22.8854 39.4207 20.4795 37.6215 18.664C35.8239 16.8433 33.4552 15.7168 30.925 15.4792L30.1512 15.4071C30.0227 15.396 29.9133 15.4958 29.9133 15.6261V26.2614C29.9133 26.3834 30.0117 26.4832 30.132 26.4832L40.6211 26.4555C40.7496 26.4527 40.8508 26.3446 40.8398 26.2171Z" fill="#9D90FA"/>
</svg>
